<svg width="200" height="200" viewBox="0 0 200 200" fill="none" xmlns="http://www.w3.org/2000/svg">
  <!-- Antenna -->
  <circle cx="110" cy="15" r="10" fill="#00A651"/>
  <path d="M110 25 L110 55" stroke="#1A2E35" stroke-width="5" stroke-linecap="round"/>
  
  <!-- Head -->
  <path d="M60 120 C60 80 160 80 160 120" stroke="#1A2E35" stroke-width="5" fill="white"/>
  <path d="M60 120 L60 160 C60 180 160 180 160 160 L160 120" stroke="#1A2E35" stroke-width="5" fill="white"/>
  
  <!-- Eyes Background -->
  <rect x="80" y="110" width="60" height="25" rx="12.5" fill="#1A2E35"/>
  
  <!-- Eyes -->
  <circle cx="95" cy="122" r="8" fill="#00A651"/>
  <circle cx="125" cy="122" r="8" fill="#00A651"/>
  
  <!-- Ears -->
  <rect x="55" y="115" width="10" height="20" rx="5" fill="#00A651"/>
  <rect x="155" y="115" width="10" height="20" rx="5" fill="#00A651"/>
  
  <!-- Mouth -->
  <path d="M95 145 C95 155, 125 155, 125 145" stroke="#1A2E35" stroke-width="3" stroke-linecap="round" fill="none"/>
  
  <!-- Neck/Body Outline -->
  <path d="M90 180 L90 200" stroke="#1A2E35" stroke-width="5" stroke-linecap="round"/>
  <path d="M130 180 L130 200" stroke="#1A2E35" stroke-width="5" stroke-linecap="round"/>
</svg> 