<svg width="600" height="500" viewBox="0 0 600 500" fill="none" xmlns="http://www.w3.org/2000/svg">
  <!-- Hintergrund und Tisch -->
  <rect x="100" y="300" width="400" height="40" rx="0" fill="#4CAF50" stroke="#2E7D32" stroke-width="2"/>
  <rect x="120" y="340" width="360" height="120" rx="0" fill="#2E7D32" stroke="#1B5E20" stroke-width="2"/>
  
  <!-- Printer -->
  <rect x="180" y="200" width="200" height="100" rx="5" fill="#4CAF50" stroke="#1B5E20" stroke-width="3"/>
  <rect x="200" y="220" width="160" height="50" rx="3" fill="#1B5E20"/>
  <rect x="230" y="280" width="100" height="10" rx="2" fill="#1B5E20"/>
  <circle cx="350" y="230" r="8" fill="#FFEB3B"/>
  
  <!-- Paper tray und Papier -->
  <rect x="230" y="300" width="100" height="5" rx="1" fill="#FFFFFF" stroke="#1B5E20" stroke-width="1"/>
  <path d="M260 300 L260 340 L300 340" fill="#FFFFFF" stroke="#2E7D32" stroke-width="1"/>
  <path d="M265 310 L295 310" stroke="#2E7D32" stroke-width="0.5"/>
  <path d="M265 320 L295 320" stroke="#2E7D32" stroke-width="0.5"/>
  <path d="M265 330 L295 330" stroke="#2E7D32" stroke-width="0.5"/>
  
  <!-- Unterlagen auf dem Tisch -->
  <rect x="350" y="320" width="80" height="60" rx="2" fill="#E8F5E9" stroke="#2E7D32" stroke-width="1" transform="rotate(-5 350 320)"/>
  <rect x="360" y="325" width="60" height="2" rx="1" fill="#2E7D32" transform="rotate(-5 360 325)"/>
  <rect x="360" y="335" width="50" height="2" rx="1" fill="#2E7D32" transform="rotate(-5 360 335)"/>
  <rect x="360" y="345" width="55" height="2" rx="1" fill="#2E7D32" transform="rotate(-5 360 345)"/>
  
  <rect x="130" y="320" width="70" height="50" rx="2" fill="#E8F5E9" stroke="#2E7D32" stroke-width="1" transform="rotate(3 130 320)"/>
  <rect x="140" y="330" width="50" height="2" rx="1" fill="#2E7D32" transform="rotate(3 140 330)"/>
  <rect x="140" y="340" width="40" height="2" rx="1" fill="#2E7D32" transform="rotate(3 140 340)"/>
  <rect x="140" y="350" width="45" height="2" rx="1" fill="#2E7D32" transform="rotate(3 140 350)"/>
  
  <!-- Pflanze -->
  <rect x="440" y="280" width="40" height="40" rx="3" fill="#E0E0E0" stroke="#2E7D32" stroke-width="2"/>
  <path d="M450 280 C450 260, 470 250, 470 280" stroke="#4CAF50" stroke-width="3" fill="#81C784"/>
  <path d="M470 280 C470 260, 450 255, 460 275" stroke="#4CAF50" stroke-width="2" fill="#A5D6A7"/>
  <path d="M465 275 C480 255, 490 265, 475 280" stroke="#4CAF50" stroke-width="2" fill="#81C784"/>
  <path d="M455 275 C445 255, 435 260, 450 280" stroke="#4CAF50" stroke-width="2" fill="#A5D6A7"/>
  <circle cx="460" y="265" r="5" fill="#1B5E20"/>
  
  <!-- Mann mit Bart -->
  <!-- Kopf -->
  <circle cx="320" y="120" r="50" fill="#FFECB3" stroke="#1B5E20" stroke-width="2"/>
  
  <!-- Haare -->
  <path d="M270 120 C270 80, 370 80, 370 120" fill="#5D4037"/>
  <path d="M270 120 L270 135 C270 155, 370 155, 370 135 L370 120" fill="#5D4037"/>
  
  <!-- Bart -->
  <path d="M290 130 C290 170, 350 170, 350 130" fill="#5D4037"/>
  <path d="M300 120 C300 125, 340 125, 340 120 L340 150 C340 165, 300 165, 300 150 Z" fill="#5D4037"/>
  
  <!-- Augen -->
  <ellipse cx="300" cy="110" rx="5" ry="7" fill="#1B5E20"/>
  <ellipse cx="340" cy="110" rx="5" ry="7" fill="#1B5E20"/>
  <circle cx="302" cy="108" r="2" fill="white"/>
  <circle cx="342" cy="108" r="2" fill="white"/>
  
  <!-- Lächeln -->
  <path d="M310 140 Q320 150 330 140" stroke="#1B5E20" stroke-width="3" stroke-linecap="round" fill="none"/>
  
  <!-- Körper -->
  <rect x="290" y="170" width="60" height="120" rx="5" fill="#4CAF50" stroke="#1B5E20" stroke-width="2"/>
  <rect x="290" y="170" width="60" height="40" rx="5" fill="#388E3C" stroke="#1B5E20" stroke-width="2"/>
  
  <!-- Arme -->
  <path d="M290 180 L230 230 L220 260" stroke="#4CAF50" stroke-width="20" stroke-linecap="round" fill="none"/>
  <circle cx="215" cy="265" r="10" fill="#FFECB3" stroke="#1B5E20" stroke-width="2"/>
  
  <path d="M350 180 L390 230 L410 250" stroke="#4CAF50" stroke-width="20" stroke-linecap="round" fill="none"/>
  <circle cx="415" cy="255" r="10" fill="#FFECB3" stroke="#1B5E20" stroke-width="2"/>
  
  <!-- Beine -->
  <path d="M300 290 L280 380" stroke="#1B5E20" stroke-width="22" stroke-linecap="round"/>
  <path d="M340 290 L360 380" stroke="#1B5E20" stroke-width="22" stroke-linecap="round"/>
  
  <!-- Schuhe -->
  <ellipse cx="275" cy="390" rx="20" ry="10" fill="#5D4037"/>
  <ellipse cx="365" cy="390" rx="20" ry="10" fill="#5D4037"/>
</svg> 